if (_typeface_js && _typeface_js.loadFace) _typeface_js.loadFace({"glyphs":{"0":{"ha":654,"x_min":67,"x_max":654,"o":"m 654 104 q 624 31 654 61 q 550 0 593 0 l 171 0 q 97 31 128 0 q 67 104 67 61 l 67 863 q 97 936 67 906 q 171 967 128 967 l 550 967 q 624 936 593 967 q 654 863 654 906 l 654 104 m 411 271 l 411 696 q 383 724 411 724 l 338 724 q 310 696 310 724 l 310 271 q 338 243 310 243 l 383 243 q 411 271 411 243 z "},"1":{"ha":378,"x_min":65,"x_max":378,"o":"m 378 42 q 336 0 378 0 l 176 0 q 135 42 135 0 l 135 696 q 107 724 135 724 q 65 765 65 724 l 65 925 q 107 967 65 967 l 197 967 q 324 913 271 967 q 378 786 378 860 l 378 42 z "},"2":{"ha":654,"x_min":67,"x_max":654,"o":"m 654 42 q 613 0 654 0 l 108 0 q 67 42 67 0 l 67 425 q 119 553 67 500 q 247 606 172 606 l 388 606 q 411 632 411 608 l 411 696 q 383 724 411 724 l 108 724 q 67 765 67 724 l 67 925 q 108 967 67 967 l 474 967 q 601 913 549 967 q 654 786 654 860 l 654 543 q 601 415 654 468 q 474 363 549 363 l 338 363 q 310 336 310 363 l 310 271 q 338 243 310 243 l 613 243 q 654 201 654 243 l 654 42 z "},"3":{"ha":654,"x_min":67,"x_max":654,"o":"m 654 181 q 601 53 654 106 q 474 0 549 0 l 108 0 q 67 42 67 0 l 67 201 q 108 243 67 243 l 383 243 q 411 271 411 243 l 411 363 q 383 390 411 390 l 247 390 q 206 432 206 390 l 206 535 q 247 576 206 576 l 383 576 q 411 604 411 576 l 411 696 q 383 724 411 724 l 108 724 q 67 765 67 724 l 67 925 q 108 967 67 967 l 474 967 q 601 914 549 967 q 654 786 654 861 l 654 660 q 614 546 654 594 q 513 483 574 497 q 614 420 574 469 q 654 307 654 371 l 654 181 z "},"4":{"ha":654,"x_min":67,"x_max":654,"o":"m 654 42 q 613 0 654 0 l 453 0 q 411 42 411 0 l 411 294 q 383 322 411 322 l 247 321 q 119 374 172 321 q 67 501 67 428 l 67 925 q 108 967 67 967 l 268 967 q 310 925 310 967 l 310 592 q 338 564 310 564 l 383 564 q 411 592 411 564 l 411 925 q 453 967 411 967 l 613 967 q 654 925 654 967 l 654 42 z "},"5":{"ha":654,"x_min":67,"x_max":654,"o":"m 654 181 q 601 53 654 106 q 474 0 549 0 l 108 0 q 67 42 67 0 l 67 201 q 108 243 67 243 l 383 243 q 411 271 411 243 l 411 333 q 388 361 411 357 l 247 361 q 119 414 172 361 q 67 542 67 467 l 67 925 q 108 967 67 967 l 613 967 q 654 925 654 967 l 654 765 q 613 724 654 724 l 338 724 q 310 696 310 724 l 310 631 q 338 604 310 604 l 474 604 q 601 551 549 604 q 654 424 654 499 l 654 181 z "},"6":{"ha":654,"x_min":67,"x_max":654,"o":"m 654 181 q 601 53 654 106 q 474 0 547 0 l 247 0 q 119 53 172 0 q 67 181 67 106 l 67 786 q 119 913 67 860 q 247 967 172 967 l 613 967 q 654 925 654 967 l 654 765 q 613 724 654 724 l 338 724 q 310 696 310 724 l 310 632 q 338 604 310 604 l 474 604 q 601 551 547 604 q 654 424 654 497 l 654 181 m 411 271 l 411 332 q 383 360 411 360 l 338 360 q 310 332 310 360 l 310 271 q 338 243 310 243 l 383 243 q 411 271 411 243 z "},"7":{"ha":778,"x_min":67,"x_max":826,"o":"m 821 925 l 349 42 q 285 0 326 0 l 93 0 q 68 22 68 0 q 74 42 68 32 l 438 724 l 108 724 q 67 765 67 724 l 67 925 q 108 967 67 967 l 801 967 q 826 944 826 967 q 821 925 826 935 z "},"8":{"ha":703,"x_min":67,"x_max":654,"o":"m 654 181 q 601 53 654 106 q 474 0 547 0 l 247 0 q 119 53 172 0 q 67 181 67 106 l 67 307 q 107 420 67 371 q 208 483 147 469 q 107 547 147 497 q 67 660 67 596 l 67 786 q 119 913 67 860 q 247 967 172 967 l 474 967 q 601 913 547 967 q 654 786 654 860 l 654 660 q 614 547 654 596 q 513 483 574 497 q 614 420 574 469 q 654 307 654 371 l 654 181 m 411 590 l 411 696 q 383 724 411 724 l 338 724 q 310 696 310 724 l 310 590 q 338 563 310 563 l 383 563 q 411 590 411 563 m 411 271 l 411 376 q 383 404 411 404 l 338 404 q 310 376 310 404 l 310 271 q 338 243 310 243 l 383 243 q 411 271 411 243 z "},"9":{"ha":654,"x_min":67,"x_max":654,"o":"m 654 181 q 601 53 654 106 q 474 0 547 0 l 108 0 q 67 42 67 0 l 67 201 q 108 243 67 243 l 383 243 q 411 271 411 243 l 411 335 q 383 363 411 363 l 247 363 q 119 415 172 363 q 67 543 67 468 l 67 786 q 119 914 67 861 q 247 967 172 967 l 474 967 q 601 914 547 967 q 654 786 654 861 l 654 181 m 411 635 l 411 696 q 383 724 411 724 l 338 724 q 310 696 310 724 l 310 635 q 338 607 310 607 l 383 607 q 411 635 411 607 z "}," ":{"ha":460,"x_min":0,"x_max":0,"o":""},"!":{"ha":358,"x_min":115,"x_max":358,"o":"m 358 460 l 331 361 q 289 319 319 319 l 185 319 q 143 361 154 319 l 115 460 l 115 925 q 157 967 115 967 l 317 967 q 358 925 358 967 l 358 460 m 358 42 q 317 0 358 0 l 157 0 q 115 42 115 0 l 115 201 q 157 243 115 243 l 317 243 q 358 201 358 243 l 358 42 z "},"\"":{"ha":636,"x_min":115,"x_max":636,"o":"m 636 617 q 620 578 636 594 q 581 561 604 561 l 518 561 q 478 578 494 561 q 463 617 463 594 l 463 694 q 435 722 463 722 q 393 764 393 722 l 393 925 q 435 967 393 967 l 594 967 q 636 925 636 967 l 636 617 m 358 617 q 342 578 358 594 q 303 561 326 561 l 240 561 q 201 578 217 561 q 185 617 185 594 l 185 694 q 157 722 185 722 q 115 764 115 722 l 115 925 q 157 967 115 967 l 317 967 q 358 925 358 967 l 358 617 z "},"#":{"ha":726,"x_min":67,"x_max":726,"o":"m 726 201 q 685 160 726 160 l 650 160 l 650 42 q 608 0 650 0 l 490 0 q 449 42 449 0 l 449 160 l 344 160 l 344 42 q 303 0 344 0 l 185 0 q 143 42 143 0 l 143 160 l 108 160 q 67 201 67 160 l 67 319 q 108 361 67 361 l 143 361 l 143 604 l 108 604 q 67 646 67 604 l 67 765 q 108 807 67 807 l 143 807 l 143 925 q 185 967 143 967 l 303 967 q 344 925 344 967 l 344 807 l 449 807 l 449 925 q 490 967 449 967 l 608 967 q 650 925 650 967 l 650 807 l 685 807 q 726 765 726 807 l 726 646 q 685 604 726 604 l 650 604 l 650 361 l 685 361 q 726 319 726 361 l 726 201 m 449 361 l 449 604 l 344 604 l 344 361 l 449 361 z "},"$":{"ha":654,"x_min":67,"x_max":654,"o":"m 654 246 q 601 118 654 171 q 474 65 549 65 l 474 42 q 432 0 474 0 l 272 0 q 231 42 231 0 l 231 65 l 108 65 q 67 107 67 65 l 67 267 q 108 308 67 308 l 383 308 q 411 336 411 308 q 383 363 411 363 l 247 363 q 119 415 172 363 q 67 543 67 468 l 67 722 q 119 850 67 797 q 247 903 172 903 l 247 925 q 289 967 247 967 l 449 967 q 490 925 490 967 l 490 903 l 613 903 q 654 861 654 903 l 654 701 q 613 660 654 660 l 338 660 q 310 632 310 660 q 333 606 310 608 l 474 606 q 601 553 549 606 q 654 425 654 500 l 654 246 z "},"%":{"ha":822,"x_min":68,"x_max":826,"o":"m 311 764 q 269 722 311 722 l 110 722 q 68 764 68 722 l 68 925 q 110 967 68 967 l 269 967 q 311 925 311 967 l 311 764 m 821 925 l 349 42 q 285 0 326 0 l 93 0 q 68 22 68 0 q 74 42 68 32 l 546 925 q 610 967 568 967 l 801 967 q 826 943 826 967 q 821 925 826 935 m 824 42 q 782 0 824 0 l 622 0 q 581 42 581 0 l 581 201 q 622 243 581 243 l 782 243 q 824 201 824 243 l 824 42 z "},"&":{"ha":654,"x_min":67,"x_max":654,"o":"m 654 765 q 613 724 654 724 l 338 724 q 310 696 310 724 l 310 604 q 338 576 310 576 l 349 576 q 390 535 390 576 l 390 432 q 349 390 390 390 l 338 390 q 310 363 310 390 l 310 271 q 338 243 310 243 q 383 243 335 243 q 411 271 411 243 l 411 471 q 453 513 411 513 l 611 513 q 653 471 653 513 l 654 42 q 613 0 654 0 l 247 0 q 119 53 172 0 q 67 181 67 106 l 67 307 q 107 420 67 371 q 208 483 147 469 q 107 546 147 497 q 67 660 67 594 l 67 786 q 119 914 67 861 q 247 967 172 967 l 613 967 q 654 925 654 967 l 654 765 z "},"'":{"ha":358,"x_min":115,"x_max":358,"o":"m 358 617 q 342 578 358 594 q 303 561 326 561 l 272 561 q 233 578 249 561 q 217 617 217 594 l 217 694 q 189 722 217 722 l 157 722 q 115 764 115 722 l 115 925 q 157 967 115 967 l 317 967 q 358 925 358 967 l 358 617 z "},"(":{"ha":468,"x_min":115,"x_max":467,"o":"m 467 42 q 425 0 467 0 l 219 0 q 146 31 176 0 q 115 104 115 61 l 115 863 q 146 936 115 906 q 219 967 176 967 l 425 967 q 467 925 467 967 l 467 765 q 425 724 467 724 l 386 724 q 358 696 358 724 l 358 271 q 386 243 358 243 l 425 243 q 467 201 467 243 l 467 42 z "},")":{"ha":468,"x_min":115,"x_max":467,"o":"m 467 104 q 436 31 467 61 q 363 0 406 0 l 157 0 q 115 42 115 0 l 115 201 q 157 243 115 243 l 196 243 q 224 271 224 243 l 224 696 q 196 724 224 724 l 157 724 q 115 765 115 724 l 115 925 q 157 967 115 967 l 363 967 q 436 936 406 967 q 467 863 467 906 l 467 104 z "},"*":{"ha":1554,"x_min":57,"x_max":1554,"o":"m 1554 194 q 1528 168 1554 168 l 1424 168 q 1396 194 1396 168 l 1396 299 q 1424 326 1396 326 l 1528 326 q 1554 299 1554 326 l 1554 194 m 1339 194 q 1313 168 1339 168 l 1208 168 q 1182 194 1182 168 l 1182 619 q 1164 638 1182 638 l 1133 638 q 1115 619 1115 638 l 1115 194 q 1089 168 1115 168 l 985 168 q 957 194 957 168 l 957 619 q 939 638 957 638 l 910 638 q 892 619 892 638 l 892 194 q 864 168 892 168 l 761 168 q 733 194 733 168 l 733 725 l 728 768 q 754 796 724 796 l 858 796 q 885 768 881 796 l 892 728 q 999 796 924 796 q 1108 717 1082 796 l 1115 728 q 1222 796 1147 796 q 1305 761 1271 796 q 1339 678 1339 726 l 1339 194 m 672 194 q 646 168 672 168 l 542 168 q 515 194 515 168 l 515 619 q 497 638 515 638 l 467 638 q 449 619 449 638 l 449 194 q 422 168 449 168 l 318 168 q 290 194 290 168 l 290 619 q 272 638 290 638 l 243 638 q 225 619 225 638 l 225 194 q 197 168 225 168 l 94 168 q 67 194 67 168 l 67 725 l 61 768 q 88 796 57 796 l 192 796 q 218 768 214 796 l 225 728 q 332 796 257 796 q 442 717 415 796 l 449 728 q 556 796 481 796 q 638 761 604 796 q 672 678 672 726 l 672 194 z "},"+":{"ha":771,"x_min":67,"x_max":726,"o":"m 726 403 q 685 361 726 361 l 518 361 l 518 194 q 476 153 518 153 l 317 153 q 275 194 275 153 l 275 361 l 108 361 q 67 403 67 361 l 67 563 q 108 604 67 604 l 275 604 l 275 771 q 317 813 275 813 l 476 813 q 518 771 518 813 l 518 604 l 685 604 q 726 563 726 604 l 726 403 z "},",":{"ha":358,"x_min":115,"x_max":358,"o":"m 358 -106 q 342 -144 358 -128 q 303 -161 326 -161 l 272 -161 q 233 -144 249 -161 q 217 -106 217 -128 l 217 -28 q 189 0 217 0 l 157 0 q 115 42 115 0 l 115 201 q 157 243 115 243 l 317 243 q 358 201 358 243 l 358 -106 z "},"-":{"ha":654,"x_min":115,"x_max":636,"o":"m 636 403 q 594 361 636 361 l 157 361 q 115 403 115 361 l 115 563 q 157 604 115 604 l 594 604 q 636 563 636 604 l 636 403 z "},".":{"ha":358,"x_min":115,"x_max":358,"o":"m 358 42 q 317 0 358 0 l 157 0 q 115 42 115 0 l 115 201 q 157 243 115 243 l 317 243 q 358 201 358 243 l 358 42 z "},"/":{"ha":778,"x_min":68,"x_max":826,"o":"m 821 925 l 349 42 q 285 0 326 0 l 93 0 q 68 22 68 0 q 74 42 68 32 l 546 925 q 610 967 568 967 l 801 967 q 826 943 826 967 q 821 925 826 935 z "},":":{"ha":358,"x_min":115,"x_max":358,"o":"m 358 597 q 317 556 358 556 l 157 556 q 115 597 115 556 l 115 757 q 157 799 115 799 l 317 799 q 358 757 358 799 l 358 597 m 358 42 q 317 0 358 0 l 157 0 q 115 42 115 0 l 115 201 q 157 243 115 243 l 317 243 q 358 201 358 243 l 358 42 z "},";":{"ha":358,"x_min":115,"x_max":358,"o":"m 358 597 q 317 556 358 556 l 157 556 q 115 597 115 556 l 115 757 q 157 799 115 799 l 317 799 q 358 757 358 799 l 358 597 m 358 -106 q 342 -144 358 -128 q 303 -161 326 -161 l 272 -161 q 233 -144 249 -161 q 217 -106 217 -128 l 217 -28 q 189 0 217 0 l 157 0 q 115 42 115 0 l 115 201 q 157 243 115 243 l 317 243 q 358 201 358 243 l 358 -106 z "},"<":{"ha":1036,"x_min":67,"x_max":1035,"o":"m 1035 468 l 907 468 q 802 233 900 331 q 567 129 704 135 l 567 0 l 535 0 l 535 129 q 299 233 397 135 q 196 468 201 331 l 67 468 l 67 500 l 196 500 q 299 735 201 638 q 535 839 397 833 l 535 968 l 567 968 l 567 839 q 802 735 704 833 q 907 500 900 638 l 1035 500 l 1035 468 m 875 500 q 781 714 869 625 q 567 808 692 803 l 567 621 q 648 581 614 615 q 688 500 682 547 l 875 500 m 656 500 q 567 589 644 578 l 567 500 l 656 500 m 535 500 l 535 589 q 446 500 458 578 l 535 500 m 535 621 l 535 808 q 321 714 410 803 q 226 500 232 625 l 415 500 q 453 581 419 547 q 535 621 488 615 m 656 468 l 567 468 l 567 379 q 656 468 644 390 m 875 468 l 688 468 q 648 387 682 421 q 567 347 614 353 l 567 160 q 781 254 692 165 q 875 468 869 343 m 535 379 l 535 468 l 446 468 q 535 379 458 390 m 535 160 l 535 347 q 453 387 488 353 q 415 468 419 421 l 226 468 q 321 254 232 343 q 535 160 410 165 z "},"=":{"ha":654,"x_min":115,"x_max":636,"o":"m 636 542 q 594 500 636 500 l 157 500 q 115 542 115 500 l 115 701 q 157 743 115 743 l 594 743 q 636 701 636 743 l 636 542 m 636 264 q 594 222 636 222 l 157 222 q 115 264 115 222 l 115 424 q 157 465 115 465 l 594 465 q 636 424 636 465 l 636 264 z "},">":{"ha":1036,"x_min":67,"x_max":1035,"o":"m 1035 468 l 907 468 q 802 233 900 331 q 567 129 704 135 l 567 0 l 535 0 l 535 129 q 299 233 397 135 q 196 468 201 331 l 67 468 l 67 500 l 196 500 q 299 735 201 638 q 535 839 397 833 l 535 968 l 567 968 l 567 839 q 802 735 704 833 q 907 500 900 638 l 1035 500 l 1035 468 m 875 500 q 781 714 869 625 q 567 808 692 803 l 567 621 q 648 581 614 615 q 688 500 682 547 l 875 500 m 656 500 q 567 589 644 578 l 567 500 l 656 500 m 535 500 l 535 589 q 446 500 458 578 l 535 500 m 535 621 l 535 808 q 321 714 410 803 q 226 500 232 625 l 415 500 q 453 581 419 547 q 535 621 488 615 m 656 468 l 567 468 l 567 379 q 656 468 644 390 m 875 468 l 688 468 q 648 387 682 421 q 567 347 614 353 l 567 160 q 781 254 692 165 q 875 468 869 343 m 535 379 l 535 468 l 446 468 q 535 379 458 390 m 535 160 l 535 347 q 453 387 488 353 q 415 468 419 421 l 226 468 q 321 254 232 343 q 535 160 410 165 z "},"?":{"ha":654,"x_min":67,"x_max":654,"o":"m 310 42 q 268 0 310 0 l 108 0 q 67 42 67 0 l 67 201 q 108 243 67 243 l 268 243 q 310 201 310 243 l 310 42 m 268 294 l 108 294 q 67 336 67 294 l 67 425 q 119 553 67 500 q 247 606 172 606 l 388 606 q 411 632 411 608 l 411 696 q 383 724 411 724 l 108 724 q 67 765 67 724 l 67 925 q 108 967 67 967 l 474 967 q 601 913 549 967 q 654 786 654 860 l 654 543 q 601 415 654 468 q 474 363 549 363 l 338 363 q 310 336 310 363 q 268 294 310 294 z "},"@":{"ha":654,"x_min":67,"x_max":654,"o":"m 654 104 q 624 31 654 61 q 550 0 593 0 l 171 0 q 97 31 128 0 q 67 104 67 61 l 67 863 q 97 936 67 906 q 171 967 128 967 l 550 967 q 624 936 593 967 q 654 863 654 906 l 654 104 m 551 196 l 551 679 q 517 763 551 728 q 433 797 482 797 l 196 797 q 169 769 169 797 l 169 667 q 196 639 169 639 l 375 639 q 393 621 393 639 l 393 579 q 375 561 393 561 l 286 561 q 203 527 238 561 q 169 444 169 493 l 169 286 q 203 203 169 238 q 286 169 238 169 l 525 169 q 551 196 551 169 m 393 346 q 375 328 393 328 l 344 328 q 326 346 326 328 l 326 385 q 344 403 326 403 l 375 403 q 393 385 393 403 l 393 346 z "},"A":{"ha":654,"x_min":67,"x_max":654,"o":"m 654 42 q 613 0 654 0 l 453 0 q 411 42 411 0 l 411 215 q 383 243 411 243 l 338 243 q 310 215 310 243 l 310 42 q 268 0 310 0 l 108 0 q 67 42 67 0 l 67 786 q 119 913 67 860 q 247 967 172 967 l 474 967 q 601 913 549 967 q 654 786 654 860 l 654 42 m 411 438 l 411 696 q 383 724 411 724 l 338 724 q 310 696 310 724 l 310 438 q 338 410 310 410 l 383 410 q 411 438 411 410 z "},"B":{"ha":654,"x_min":67,"x_max":654,"o":"m 654 181 q 601 53 654 106 q 474 0 549 0 l 108 0 q 67 42 67 0 l 67 925 q 108 967 67 967 l 474 967 q 601 913 549 967 q 654 786 654 860 l 654 588 q 624 514 654 544 q 550 483 593 483 q 624 453 593 483 q 654 379 654 422 l 654 181 m 411 590 l 411 696 q 383 724 411 724 l 338 724 q 310 696 310 724 l 310 590 q 338 563 310 563 l 383 563 q 411 590 411 563 m 411 271 l 411 376 q 383 404 411 404 l 338 404 q 310 376 310 404 l 310 271 q 338 243 310 243 l 383 243 q 411 271 411 243 z "},"C":{"ha":517,"x_min":67,"x_max":517,"o":"m 517 42 q 475 0 517 0 l 247 0 q 119 53 172 0 q 67 181 67 106 l 67 786 q 119 913 67 860 q 247 967 172 967 l 475 967 q 517 925 517 967 l 517 765 q 475 724 517 724 l 338 724 q 310 696 310 724 l 310 271 q 338 243 310 243 l 475 243 q 517 201 517 243 l 517 42 z "},"D":{"ha":654,"x_min":67,"x_max":654,"o":"m 654 181 q 601 53 654 106 q 474 0 549 0 l 108 0 q 67 42 67 0 l 67 925 q 108 967 67 967 l 474 967 q 601 913 549 967 q 654 786 654 860 l 654 181 m 411 271 l 411 696 q 383 724 411 724 l 338 724 q 310 696 310 724 l 310 271 q 338 243 310 243 l 383 243 q 411 271 411 243 z "},"E":{"ha":613,"x_min":67,"x_max":613,"o":"m 613 42 q 571 0 613 0 l 247 0 q 119 53 172 0 q 67 181 67 106 l 67 786 q 119 913 67 860 q 247 967 172 967 l 571 967 q 613 925 613 967 l 613 765 q 571 724 613 724 l 338 724 q 310 696 310 724 l 310 626 q 338 599 310 599 l 571 599 q 613 557 613 599 l 613 397 q 571 356 613 356 l 338 356 q 310 328 310 356 l 310 271 q 338 243 310 243 l 571 243 q 613 201 613 243 l 613 42 z "},"F":{"ha":613,"x_min":67,"x_max":613,"o":"m 613 397 q 571 356 613 356 l 338 356 q 310 328 310 356 l 310 42 q 268 0 310 0 l 108 0 q 67 42 67 0 l 67 786 q 119 913 67 860 q 247 967 172 967 l 571 967 q 613 925 613 967 l 613 765 q 571 724 613 724 l 338 724 q 310 696 310 724 l 310 626 q 338 599 310 599 l 571 599 q 613 557 613 599 l 613 397 z "},"G":{"ha":654,"x_min":67,"x_max":656,"o":"m 656 765 q 614 724 656 724 l 338 724 q 310 696 310 724 l 310 271 q 338 243 310 243 l 383 243 q 411 271 411 243 l 411 471 q 453 513 411 513 l 613 513 q 654 471 654 513 l 654 42 q 613 0 654 0 l 247 0 q 119 53 172 0 q 67 181 67 106 l 67 786 q 119 913 67 860 q 247 967 172 967 l 614 967 q 656 925 656 967 l 656 765 z "},"H":{"ha":654,"x_min":67,"x_max":654,"o":"m 654 42 q 613 0 654 0 l 453 0 q 411 42 411 0 l 411 328 q 383 356 411 356 l 338 356 q 310 328 310 356 l 310 42 q 268 0 310 0 l 108 0 q 67 42 67 0 l 67 925 q 108 967 67 967 l 268 967 q 310 925 310 967 l 310 626 q 338 599 310 599 l 383 599 q 411 626 410 599 l 411 925 q 453 967 411 967 l 613 967 q 654 925 654 967 l 654 42 z "},"I":{"ha":310,"x_min":67,"x_max":310,"o":"m 310 42 q 268 0 310 0 l 108 0 q 67 42 67 0 l 67 925 q 108 967 67 967 l 268 967 q 310 925 310 967 l 310 42 z "},"J":{"ha":517,"x_min":67,"x_max":517,"o":"m 517 925 l 517 181 q 463 53 517 106 q 336 0 410 0 l 108 0 q 67 42 67 0 l 67 201 q 108 243 67 243 l 246 243 q 274 271 274 243 l 274 925 q 315 967 274 967 l 475 967 q 517 925 517 967 z "},"K":{"ha":654,"x_min":67,"x_max":654,"o":"m 654 42 q 613 0 654 0 l 453 0 q 411 42 411 0 l 411 307 q 383 335 411 335 l 338 335 q 310 307 310 335 l 310 42 q 268 0 310 0 l 108 0 q 67 42 67 0 l 67 925 q 108 967 67 967 l 268 967 q 310 925 310 967 l 310 590 q 338 563 310 563 l 383 563 q 411 590 411 563 l 411 925 q 453 967 411 967 l 613 967 q 654 925 654 967 l 654 588 q 624 514 654 544 q 550 483 593 483 q 624 453 593 483 q 654 379 654 422 l 654 42 z "},"L":{"ha":517,"x_min":67,"x_max":517,"o":"m 517 42 q 475 0 517 0 l 108 0 q 67 42 67 0 l 67 925 q 108 967 67 967 l 268 967 q 310 925 310 967 l 310 271 q 338 243 310 243 l 475 243 q 517 201 517 243 l 517 42 z "},"M":{"ha":999,"x_min":54,"x_max":999,"o":"m 999 42 q 957 0 999 0 l 797 0 q 756 42 756 0 l 756 696 q 728 724 756 724 l 682 724 q 654 696 654 724 l 654 42 q 613 0 654 0 l 453 0 q 411 42 411 0 l 411 696 q 383 724 411 724 l 338 724 q 310 696 310 724 l 310 42 q 268 0 310 0 l 108 0 q 67 42 67 0 l 67 857 l 57 925 q 67 954 54 942 q 99 967 81 967 l 258 967 q 300 925 293 967 l 310 863 q 474 967 358 967 q 578 933 532 967 q 644 844 625 899 l 654 863 q 818 967 703 967 q 946 913 893 967 q 999 786 999 860 l 999 42 z "},"N":{"ha":654,"x_min":54,"x_max":654,"o":"m 654 42 q 613 0 654 0 l 453 0 q 411 42 411 0 l 411 696 q 383 724 411 724 l 338 724 q 310 696 310 724 l 310 42 q 268 0 310 0 l 108 0 q 67 42 67 0 l 67 857 l 57 925 q 67 954 54 942 q 99 967 81 967 l 258 967 q 300 925 293 967 l 310 863 q 474 967 358 967 q 601 913 549 967 q 654 786 654 860 l 654 42 z "},"O":{"ha":654,"x_min":67,"x_max":654,"o":"m 654 181 q 601 53 654 106 q 474 0 549 0 l 247 0 q 119 53 172 0 q 67 181 67 106 l 67 786 q 119 913 67 860 q 247 967 172 967 l 474 967 q 601 913 549 967 q 654 786 654 860 l 654 181 m 411 271 l 411 696 q 383 724 411 724 l 338 724 q 310 696 310 724 l 310 271 q 338 243 310 243 l 383 243 q 411 271 411 243 z "},"P":{"ha":654,"x_min":67,"x_max":654,"o":"m 654 499 q 601 372 654 425 q 474 318 549 318 l 338 318 q 310 290 310 318 l 310 42 q 268 0 310 0 l 108 0 q 67 42 67 0 l 67 925 q 108 967 67 967 l 474 967 q 601 913 549 967 q 654 786 654 860 l 654 499 m 411 589 l 411 696 q 383 724 411 724 l 338 724 q 310 696 310 724 l 310 589 q 338 561 310 561 l 383 561 q 411 589 411 561 z "},"Q":{"ha":654,"x_min":67,"x_max":654,"o":"m 654 -254 q 613 -296 654 -296 l 450 -296 q 322 -243 375 -296 q 269 -115 269 -190 l 268 0 l 247 0 q 119 53 172 0 q 67 181 67 106 l 67 786 q 119 913 67 860 q 247 967 172 967 l 474 967 q 601 913 549 967 q 654 786 654 860 l 654 181 q 601 53 654 106 q 474 0 549 0 l 453 0 l 453 -25 q 481 -53 453 -53 l 613 -53 q 654 -94 654 -53 l 654 -254 m 411 271 l 411 696 q 383 724 411 724 l 338 724 q 310 696 310 724 l 310 271 q 338 243 310 243 l 383 243 q 411 271 411 243 z "},"R":{"ha":654,"x_min":67,"x_max":654,"o":"m 654 42 q 613 0 654 0 l 453 0 q 411 42 411 0 l 411 307 q 383 335 411 335 l 338 335 q 310 307 310 335 l 310 42 q 268 0 310 0 l 108 0 q 67 42 67 0 l 67 925 q 108 967 67 967 l 474 967 q 601 913 549 967 q 654 786 654 860 l 654 588 q 624 514 654 544 q 550 483 593 483 q 624 453 593 483 q 654 379 654 422 l 654 42 m 411 590 l 411 696 q 383 724 411 724 l 338 724 q 310 696 310 724 l 310 590 q 338 563 310 563 l 383 563 q 411 590 411 563 z "},"S":{"ha":654,"x_min":67,"x_max":654,"o":"m 654 181 q 601 53 654 106 q 474 0 549 0 l 108 0 q 67 42 67 0 l 67 201 q 108 243 67 243 l 383 243 q 411 271 411 243 l 411 336 q 383 363 411 363 l 247 363 q 119 415 172 363 q 67 543 67 468 l 67 786 q 119 913 67 860 q 247 967 172 967 l 613 967 q 654 925 654 967 l 654 765 q 613 724 654 724 l 338 724 q 310 696 310 724 l 310 632 q 333 606 310 608 l 474 606 q 601 553 549 606 q 654 425 654 500 l 654 181 z "},"T":{"ha":643,"x_min":67,"x_max":644,"o":"m 644 765 q 603 724 644 724 l 504 724 q 476 696 476 724 l 476 42 q 435 0 476 0 l 275 0 q 233 42 233 0 l 233 694 q 206 722 233 722 l 108 724 q 67 765 67 724 l 67 925 q 108 967 67 967 l 603 967 q 644 925 644 967 l 644 765 z "},"U":{"ha":654,"x_min":67,"x_max":654,"o":"m 654 925 l 654 181 q 601 53 654 106 q 474 0 549 0 l 247 0 q 119 53 172 0 q 67 181 67 106 l 67 925 q 108 967 67 967 l 268 967 q 310 925 310 967 l 310 271 q 338 243 310 243 l 383 243 q 411 271 411 243 l 411 925 q 453 967 411 967 l 613 967 q 654 925 654 967 z "},"V":{"ha":654,"x_min":51,"x_max":675,"o":"m 668 925 l 513 42 q 464 0 506 0 l 263 0 q 214 42 221 0 l 58 925 q 93 967 51 967 l 253 967 q 301 925 294 967 l 364 574 l 425 925 q 474 967 432 967 l 633 967 q 668 925 675 967 z "},"W":{"ha":1075,"x_min":93,"x_max":1099,"o":"m 1092 925 l 936 42 q 888 0 929 0 l 686 0 q 638 42 644 0 l 596 276 l 554 42 q 506 0 547 0 l 304 0 q 256 42 263 0 l 100 925 q 135 967 93 967 l 294 967 q 343 925 336 967 l 406 574 l 467 925 q 514 967 474 965 l 515 967 l 675 967 q 725 925 717 967 l 786 574 l 849 925 q 897 967 856 967 l 1057 967 q 1092 925 1099 967 z "},"X":{"ha":785,"x_min":74,"x_max":833,"o":"m 828 925 l 589 482 l 826 42 q 832 22 832 32 q 807 0 832 0 l 615 0 q 551 42 575 0 l 451 226 l 356 42 q 292 0 333 0 l 100 0 q 75 22 75 0 q 81 42 75 32 l 315 482 l 79 925 q 74 944 74 935 q 99 967 74 967 l 290 967 q 354 925 332 967 l 451 738 l 553 925 q 617 967 575 967 l 808 967 q 833 943 833 967 q 828 925 833 935 z "},"Y":{"ha":654,"x_min":67,"x_max":654,"o":"m 654 925 l 654 181 q 601 53 654 106 q 474 0 549 0 l 108 0 q 67 42 67 0 l 67 201 q 108 243 67 243 l 383 243 q 411 271 411 243 l 411 294 q 383 322 411 322 l 247 321 q 119 374 172 321 q 67 501 67 428 l 67 925 q 108 967 67 967 l 268 967 q 310 925 310 967 l 310 592 q 338 564 310 564 l 383 564 q 411 592 411 564 l 411 925 q 453 967 411 967 l 613 967 q 654 925 654 967 z "},"Z":{"ha":654,"x_min":67,"x_max":654,"o":"m 654 42 q 613 0 654 0 l 108 -1 q 67 40 67 -1 l 67 51 q 94 131 67 65 l 343 722 l 108 722 q 67 764 67 722 l 67 924 q 108 965 67 965 l 613 965 q 654 924 654 965 l 654 914 q 626 835 654 893 l 392 243 l 613 243 q 654 201 654 243 l 654 42 z "},"[":{"ha":468,"x_min":115,"x_max":467,"o":"m 467 42 q 425 0 467 0 l 219 0 q 146 31 176 0 q 115 104 115 61 l 115 863 q 146 936 115 906 q 219 967 176 967 l 425 967 q 467 925 467 967 l 467 765 q 425 724 467 724 l 386 724 q 358 696 358 724 l 358 271 q 386 243 358 243 l 425 243 q 467 201 467 243 l 467 42 z "},"\\":{"ha":778,"x_min":68,"x_max":826,"o":"m 74 925 l 546 42 q 610 0 568 0 l 801 0 q 826 22 826 0 q 821 42 826 32 l 349 925 q 285 967 326 967 l 93 967 q 68 943 68 967 q 74 925 68 935 z "},"]":{"ha":468,"x_min":115,"x_max":467,"o":"m 467 104 q 436 31 467 61 q 363 0 406 0 l 157 0 q 115 42 115 0 l 115 201 q 157 243 115 243 l 196 243 q 224 271 224 243 l 224 696 q 196 724 224 724 l 157 724 q 115 765 115 724 l 115 925 q 157 967 115 967 l 363 967 q 436 936 406 967 q 467 863 467 906 l 467 104 z "},"^":{"ha":1036,"x_min":67,"x_max":1035,"o":"m 1035 468 l 907 468 q 802 233 900 331 q 567 129 704 135 l 567 0 l 535 0 l 535 129 q 299 233 397 135 q 196 468 201 331 l 67 468 l 67 500 l 196 500 q 299 735 201 638 q 535 839 397 833 l 535 968 l 567 968 l 567 839 q 802 735 704 833 q 907 500 900 638 l 1035 500 l 1035 468 m 875 500 q 781 714 869 625 q 567 808 692 803 l 567 621 q 648 581 614 615 q 688 500 682 547 l 875 500 m 656 500 q 567 589 644 578 l 567 500 l 656 500 m 535 500 l 535 589 q 446 500 458 578 l 535 500 m 535 621 l 535 808 q 321 714 410 803 q 226 500 232 625 l 415 500 q 453 581 419 547 q 535 621 488 615 m 656 468 l 567 468 l 567 379 q 656 468 644 390 m 875 468 l 688 468 q 648 387 682 421 q 567 347 614 353 l 567 160 q 781 254 692 165 q 875 468 869 343 m 535 379 l 535 468 l 446 468 q 535 379 458 390 m 535 160 l 535 347 q 453 387 488 353 q 415 468 419 421 l 226 468 q 321 254 232 343 q 535 160 410 165 z "},"_":{"ha":654,"x_min":67,"x_max":654,"o":"m 654 42 q 613 0 654 0 l 108 0 q 67 42 67 0 l 67 201 q 108 243 67 243 l 613 243 q 654 201 654 243 l 654 42 z "},"`":{"ha":1036,"x_min":67,"x_max":1035,"o":"m 1035 468 l 907 468 q 802 233 900 331 q 567 129 704 135 l 567 0 l 535 0 l 535 129 q 299 233 397 135 q 196 468 201 331 l 67 468 l 67 500 l 196 500 q 299 735 201 638 q 535 839 397 833 l 535 968 l 567 968 l 567 839 q 802 735 704 833 q 907 500 900 638 l 1035 500 l 1035 468 m 875 500 q 781 714 869 625 q 567 808 692 803 l 567 621 q 648 581 614 615 q 688 500 682 547 l 875 500 m 656 500 q 567 589 644 578 l 567 500 l 656 500 m 535 500 l 535 589 q 446 500 458 578 l 535 500 m 535 621 l 535 808 q 321 714 410 803 q 226 500 232 625 l 415 500 q 453 581 419 547 q 535 621 488 615 m 656 468 l 567 468 l 567 379 q 656 468 644 390 m 875 468 l 688 468 q 648 387 682 421 q 567 347 614 353 l 567 160 q 781 254 692 165 q 875 468 869 343 m 535 379 l 535 468 l 446 468 q 535 379 458 390 m 535 160 l 535 347 q 453 387 488 353 q 415 468 419 421 l 226 468 q 321 254 232 343 q 535 160 410 165 z "},"a":{"ha":654,"x_min":67,"x_max":654,"o":"m 654 42 q 613 0 654 0 l 453 0 q 411 42 411 0 l 411 215 q 383 243 411 243 l 338 243 q 310 215 310 243 l 310 42 q 268 0 310 0 l 108 0 q 67 42 67 0 l 67 863 q 97 936 67 906 q 171 967 128 967 l 550 967 q 624 936 593 967 q 654 863 654 906 l 654 42 m 411 438 l 411 696 q 383 724 411 724 l 338 724 q 310 696 310 724 l 310 438 q 338 410 310 410 l 383 410 q 411 438 411 410 z "},"b":{"ha":654,"x_min":67,"x_max":654,"o":"m 654 181 q 601 53 654 106 q 474 0 549 0 l 108 0 q 67 42 67 0 l 67 925 q 108 967 67 967 l 474 967 q 601 913 549 967 q 654 786 654 860 l 654 588 q 624 514 654 544 q 550 483 593 483 q 624 453 593 483 q 654 379 654 422 l 654 181 m 411 590 l 411 696 q 383 724 411 724 l 338 724 q 310 696 310 724 l 310 590 q 338 563 310 563 l 383 563 q 411 590 411 563 m 411 271 l 411 376 q 383 404 411 404 l 338 404 q 310 376 310 404 l 310 271 q 338 243 310 243 l 383 243 q 411 271 411 243 z "},"c":{"ha":517,"x_min":67,"x_max":517,"o":"m 517 42 q 475 0 517 0 l 247 0 q 119 53 172 0 q 67 181 67 106 l 67 786 q 119 913 67 860 q 247 967 172 967 l 475 967 q 517 925 517 967 l 517 765 q 475 724 517 724 l 338 724 q 310 696 310 724 l 310 271 q 338 243 310 243 l 475 243 q 517 201 517 243 l 517 42 z "},"d":{"ha":654,"x_min":67,"x_max":654,"o":"m 654 181 q 601 53 654 106 q 474 0 549 0 l 108 0 q 67 42 67 0 l 67 925 q 108 967 67 967 l 474 967 q 601 913 549 967 q 654 786 654 860 l 654 181 m 411 271 l 411 696 q 383 724 411 724 l 338 724 q 310 696 310 724 l 310 271 q 338 243 310 243 l 383 243 q 411 271 411 243 z "},"e":{"ha":613,"x_min":67,"x_max":613,"o":"m 613 42 q 571 0 613 0 l 247 0 q 119 53 172 0 q 67 181 67 106 l 67 786 q 119 913 67 860 q 247 967 172 967 l 571 967 q 613 925 613 967 l 613 765 q 571 724 613 724 l 338 724 q 310 696 310 724 l 310 626 q 338 599 310 599 l 571 599 q 613 557 613 599 l 613 397 q 571 356 613 356 l 338 356 q 310 328 310 356 l 310 271 q 338 243 310 243 l 571 243 q 613 201 613 243 l 613 42 z "},"f":{"ha":613,"x_min":67,"x_max":613,"o":"m 613 397 q 571 356 613 356 l 338 356 q 310 328 310 356 l 310 42 q 268 0 310 0 l 108 0 q 67 42 67 0 l 67 786 q 119 913 67 860 q 247 967 172 967 l 571 967 q 613 925 613 967 l 613 765 q 571 724 613 724 l 338 724 q 310 696 310 724 l 310 626 q 338 599 310 599 l 571 599 q 613 557 613 599 l 613 397 z "},"g":{"ha":654,"x_min":67,"x_max":656,"o":"m 656 765 q 614 724 656 724 l 338 724 q 310 696 310 724 l 310 271 q 338 243 310 243 l 383 243 q 411 271 411 243 l 411 471 q 453 513 411 513 l 613 513 q 654 471 654 513 l 654 42 q 613 0 654 0 l 247 0 q 119 53 172 0 q 67 181 67 106 l 67 786 q 119 913 67 860 q 247 967 172 967 l 614 967 q 656 925 656 967 l 656 765 z "},"h":{"ha":654,"x_min":67,"x_max":654,"o":"m 654 42 q 613 0 654 0 l 453 0 q 411 42 411 0 l 411 328 q 383 356 411 356 l 338 356 q 310 328 310 356 l 310 42 q 268 0 310 0 l 108 0 q 67 42 67 0 l 67 925 q 108 967 67 967 l 268 967 q 310 925 310 967 l 310 626 q 338 599 310 599 l 383 599 q 411 626 410 599 l 411 925 q 453 967 411 967 l 613 967 q 654 925 654 967 l 654 42 z "},"i":{"ha":310,"x_min":67,"x_max":310,"o":"m 310 42 q 268 0 310 0 l 108 0 q 67 42 67 0 l 67 925 q 108 967 67 967 l 268 967 q 310 925 310 967 l 310 42 z "},"j":{"ha":517,"x_min":67,"x_max":517,"o":"m 517 925 l 517 181 q 463 53 517 106 q 336 0 410 0 l 108 0 q 67 42 67 0 l 67 201 q 108 243 67 243 l 246 243 q 274 271 274 243 l 274 925 q 315 967 274 967 l 475 967 q 517 925 517 967 z "},"k":{"ha":654,"x_min":67,"x_max":654,"o":"m 654 42 q 613 0 654 0 l 453 0 q 411 42 411 0 l 411 307 q 383 335 411 335 l 338 335 q 310 307 310 335 l 310 42 q 268 0 310 0 l 108 0 q 67 42 67 0 l 67 925 q 108 967 67 967 l 268 967 q 310 925 310 967 l 310 590 q 338 563 310 563 l 383 563 q 411 590 411 563 l 411 925 q 453 967 411 967 l 613 967 q 654 925 654 967 l 654 588 q 624 514 654 544 q 550 483 593 483 q 624 453 593 483 q 654 379 654 422 l 654 42 z "},"l":{"ha":517,"x_min":67,"x_max":517,"o":"m 517 42 q 475 0 517 0 l 108 0 q 67 42 67 0 l 67 925 q 108 967 67 967 l 268 967 q 310 925 310 967 l 310 271 q 338 243 310 243 l 475 243 q 517 201 517 243 l 517 42 z "},"m":{"ha":999,"x_min":67,"x_max":999,"o":"m 999 42 q 957 0 999 0 l 797 0 q 756 42 756 0 l 756 696 q 728 724 756 724 l 682 724 q 654 696 654 724 l 654 42 q 613 0 654 0 l 453 0 q 411 42 411 0 l 411 696 q 383 724 411 724 l 338 724 q 310 696 310 724 l 310 42 q 268 0 310 0 l 108 0 q 67 42 67 0 l 67 786 q 119 913 67 860 q 247 967 172 967 l 474 967 q 611 903 557 967 q 749 967 665 967 l 818 967 q 946 913 893 967 q 999 786 999 860 l 999 42 z "},"n":{"ha":654,"x_min":67,"x_max":654,"o":"m 67 42 l 67 786 q 119 913 67 860 q 247 967 172 967 l 474 967 q 601 913 549 967 q 654 786 654 860 l 654 42 q 613 0 654 0 l 453 0 q 411 42 411 0 l 411 696 q 383 724 411 724 l 338 724 q 310 696 310 724 l 310 42 q 268 0 310 0 l 108 0 q 67 42 67 0 z "},"o":{"ha":654,"x_min":67,"x_max":654,"o":"m 654 181 q 601 53 654 106 q 474 0 549 0 l 247 0 q 119 53 172 0 q 67 181 67 106 l 67 786 q 119 913 67 860 q 247 967 172 967 l 474 967 q 601 913 549 967 q 654 786 654 860 l 654 181 m 411 271 l 411 696 q 383 724 411 724 l 338 724 q 310 696 310 724 l 310 271 q 338 243 310 243 l 383 243 q 411 271 411 243 z "},"p":{"ha":654,"x_min":67,"x_max":654,"o":"m 654 424 q 601 297 654 350 q 474 243 549 243 l 338 243 q 310 215 310 243 l 310 42 q 268 0 310 0 l 108 0 q 67 42 67 0 l 67 925 q 108 967 67 967 l 474 967 q 601 913 549 967 q 654 786 654 860 l 654 424 m 411 514 l 411 696 q 383 724 411 724 l 338 724 q 310 696 310 724 l 310 514 q 338 486 310 486 l 383 486 q 411 514 411 486 z "},"q":{"ha":654,"x_min":67,"x_max":654,"o":"m 654 -254 q 613 -296 654 -296 l 450 -296 q 322 -243 375 -296 q 269 -115 269 -190 l 268 0 l 247 0 q 119 53 172 0 q 67 181 67 106 l 67 786 q 119 913 67 860 q 247 967 172 967 l 474 967 q 601 913 549 967 q 654 786 654 860 l 654 181 q 601 53 654 106 q 474 0 549 0 l 453 0 l 453 -25 q 481 -53 453 -53 l 613 -53 q 654 -94 654 -53 l 654 -254 m 411 271 l 411 696 q 383 724 411 724 l 338 724 q 310 696 310 724 l 310 271 q 338 243 310 243 l 383 243 q 411 271 411 243 z "},"r":{"ha":654,"x_min":67,"x_max":654,"o":"m 654 42 q 613 0 654 0 l 453 0 q 411 42 411 0 l 411 307 q 383 335 411 335 l 338 335 q 310 307 310 335 l 310 42 q 268 0 310 0 l 108 0 q 67 42 67 0 l 67 925 q 108 967 67 967 l 474 967 q 601 913 549 967 q 654 786 654 860 l 654 588 q 624 514 654 544 q 550 483 593 483 q 624 453 593 483 q 654 379 654 422 l 654 42 m 411 590 l 411 696 q 383 724 411 724 l 338 724 q 310 696 310 724 l 310 590 q 338 563 310 563 l 383 563 q 411 590 411 563 z "},"s":{"ha":654,"x_min":67,"x_max":654,"o":"m 654 181 q 601 53 654 106 q 474 0 549 0 l 108 0 q 67 42 67 0 l 67 201 q 108 243 67 243 l 383 243 q 411 271 411 243 l 411 336 q 383 363 411 363 l 247 363 q 119 415 172 363 q 67 543 67 468 l 67 786 q 119 913 67 860 q 247 967 172 967 l 613 967 q 654 925 654 967 l 654 765 q 613 724 654 724 l 338 724 q 310 696 310 724 l 310 632 q 333 606 310 608 l 474 606 q 601 553 549 606 q 654 425 654 500 l 654 181 z "},"t":{"ha":643,"x_min":67,"x_max":644,"o":"m 644 765 q 603 724 644 724 l 504 724 q 476 696 476 724 l 476 42 q 435 0 476 0 l 275 0 q 233 42 233 0 l 233 694 q 206 722 233 722 l 108 724 q 67 765 67 724 l 67 925 q 108 967 67 967 l 603 967 q 644 925 644 967 l 644 765 z "},"u":{"ha":654,"x_min":67,"x_max":654,"o":"m 654 925 l 654 181 q 601 53 654 106 q 474 0 549 0 l 247 0 q 119 53 172 0 q 67 181 67 106 l 67 925 q 108 967 67 967 l 268 967 q 310 925 310 967 l 310 271 q 338 243 310 243 l 383 243 q 411 271 411 243 l 411 925 q 453 967 411 967 l 613 967 q 654 925 654 967 z "},"v":{"ha":654,"x_min":57,"x_max":669,"o":"m 668 925 l 513 42 q 464 0 506 0 l 263 0 q 214 42 221 0 l 58 925 q 93 967 51 967 l 253 967 q 301 925 294 967 l 364 574 l 425 925 q 474 967 432 967 l 633 967 q 668 925 675 967 z "},"w":{"ha":999,"x_min":67,"x_max":999,"o":"m 999 925 l 999 181 q 946 53 999 106 q 818 0 893 0 l 749 0 q 611 64 665 0 q 474 0 557 0 l 247 0 q 119 53 172 0 q 67 181 67 106 l 67 925 q 108 967 67 967 l 268 967 q 310 925 310 967 l 310 271 q 338 243 310 243 l 383 243 q 411 271 411 243 l 411 925 q 453 967 411 967 l 613 967 q 654 925 654 967 l 654 271 q 682 243 654 243 l 728 243 q 756 271 756 243 l 756 925 q 797 967 756 967 l 957 967 q 999 925 999 967 z "},"x":{"ha":785,"x_min":74,"x_max":833,"o":"m 828 925 l 589 482 l 826 42 q 832 22 832 32 q 807 0 832 0 l 615 0 q 551 42 575 0 l 451 226 l 356 42 q 292 0 333 0 l 100 0 q 75 22 75 0 q 81 42 75 32 l 315 482 l 79 925 q 74 944 74 935 q 99 967 74 967 l 290 967 q 354 925 332 967 l 451 738 l 553 925 q 617 967 575 967 l 808 967 q 833 943 833 967 q 828 925 833 935 z "},"y":{"ha":654,"x_min":67,"x_max":654,"o":"m 654 925 l 654 181 q 601 53 654 106 q 474 0 549 0 l 108 0 q 67 42 67 0 l 67 201 q 108 243 67 243 l 383 243 q 411 271 411 243 l 411 294 q 383 322 411 322 l 247 321 q 119 374 172 321 q 67 501 67 428 l 67 925 q 108 967 67 967 l 268 967 q 310 925 310 967 l 310 592 q 338 564 310 564 l 383 564 q 411 592 411 564 l 411 925 q 453 967 411 967 l 613 967 q 654 925 654 967 z "},"z":{"ha":654,"x_min":67,"x_max":654,"o":"m 654 42 q 613 0 654 0 l 108 -1 q 67 40 67 -1 l 67 51 q 94 131 67 65 l 343 722 l 108 722 q 67 764 67 722 l 67 924 q 108 965 67 965 l 613 965 q 654 924 654 965 l 654 914 q 626 835 654 893 l 392 243 l 613 243 q 654 201 654 243 l 654 42 z "},"{":{"ha":535,"x_min":115,"x_max":535,"o":"m 535 42 q 493 0 535 0 l 288 0 q 214 31 244 0 q 183 104 183 61 l 183 381 l 171 381 q 131 397 147 381 q 115 436 115 413 l 115 531 q 131 569 115 553 q 171 586 147 586 l 183 586 l 183 863 q 214 936 183 906 q 288 967 244 967 l 493 967 q 535 925 535 967 l 535 765 q 493 724 535 724 l 454 724 q 426 696 426 724 l 426 588 q 396 514 426 544 q 322 483 365 483 q 396 453 365 483 q 426 379 426 422 l 426 271 q 454 243 426 243 l 493 243 q 535 201 535 243 l 535 42 z "},"|":{"ha":358,"x_min":115,"x_max":358,"o":"m 358 -97 q 317 -139 358 -139 l 157 -139 q 115 -97 115 -139 l 115 1064 q 157 1106 115 1106 l 317 1106 q 358 1064 358 1106 l 358 -97 z "},"}":{"ha":535,"x_min":115,"x_max":535,"o":"m 535 436 q 519 397 535 413 q 479 381 503 381 l 467 381 l 467 104 q 436 31 467 61 q 363 0 406 0 l 157 0 q 115 42 115 0 l 115 201 q 157 243 115 243 l 196 243 q 224 271 224 243 l 224 379 q 254 453 224 422 q 328 483 285 483 q 254 514 285 483 q 224 588 224 544 l 224 696 q 196 724 224 724 l 157 724 q 115 765 115 724 l 115 925 q 157 967 115 967 l 363 967 q 436 936 406 967 q 467 863 467 906 l 467 586 l 479 586 q 519 569 503 586 q 535 531 535 553 l 535 436 z "},"~":{"ha":1036,"x_min":67,"x_max":1035,"o":"m 1035 468 l 907 468 q 802 233 900 331 q 567 129 704 135 l 567 0 l 535 0 l 535 129 q 299 233 397 135 q 196 468 201 331 l 67 468 l 67 500 l 196 500 q 299 735 201 638 q 535 839 397 833 l 535 968 l 567 968 l 567 839 q 802 735 704 833 q 907 500 900 638 l 1035 500 l 1035 468 m 875 500 q 781 714 869 625 q 567 808 692 803 l 567 621 q 648 581 614 615 q 688 500 682 547 l 875 500 m 656 500 q 567 589 644 578 l 567 500 l 656 500 m 535 500 l 535 589 q 446 500 458 578 l 535 500 m 535 621 l 535 808 q 321 714 410 803 q 226 500 232 625 l 415 500 q 453 581 419 547 q 535 621 488 615 m 656 468 l 567 468 l 567 379 q 656 468 644 390 m 875 468 l 688 468 q 648 387 682 421 q 567 347 614 353 l 567 160 q 781 254 692 165 q 875 468 869 343 m 535 379 l 535 468 l 446 468 q 535 379 458 390 m 535 160 l 535 347 q 453 387 488 353 q 415 468 419 421 l 226 468 q 321 254 232 343 q 535 160 410 165 z "},"¿":{"ha":358,"x_min":67,"x_max":654,"o":"m 411 682 q 453 724 411 724 l 613 724 q 654 682 654 724 l 654 521 q 613 479 654 479 l 453 479 q 411 521 411 479 l 411 682 m 453 429 l 613 429 q 654 388 654 429 l 654 299 q 601 171 654 224 q 474 118 549 118 l 333 118 q 310 90 310 114 l 310 28 q 338 0 310 0 l 613 0 q 654 -42 654 0 l 654 -201 q 613 -243 654 -243 l 247 -243 q 119 -190 172 -243 q 67 -62 67 -137 l 67 181 q 119 308 67 256 q 247 361 172 361 l 383 361 q 411 388 411 361 q 453 429 411 429 z "},"¡":{"ha":358,"x_min":115,"x_max":358,"o":"m 115 383 l 143 481 q 185 522 154 522 l 289 522 q 331 481 319 522 l 358 383 l 358 -82 q 317 -124 358 -124 l 157 -124 q 115 -82 115 -124 l 115 383 m 115 800 q 157 842 115 842 l 317 842 q 358 800 358 842 l 358 640 q 317 599 358 599 l 157 599 q 115 640 115 599 l 115 800 z "},"á":{"ha":1389,"x_min":0,"x_max":0,"o":""},"å":{"ha":1389,"x_min":0,"x_max":0,"o":""},"ç":{"ha":1389,"x_min":0,"x_max":0,"o":""},"è":{"ha":1389,"x_min":0,"x_max":0,"o":""},"î":{"ha":1389,"x_min":0,"x_max":0,"o":""},"ï":{"ha":1389,"x_min":0,"x_max":0,"o":""},"ñ":{"ha":1389,"x_min":0,"x_max":0,"o":""},"ó":{"ha":1389,"x_min":0,"x_max":0,"o":""},"ö":{"ha":1389,"x_min":0,"x_max":0,"o":""},"®":{"ha":654,"x_min":67,"x_max":654,"o":"m 654 104 q 624 31 654 61 q 550 0 593 0 l 171 0 q 97 31 128 0 q 67 104 67 61 l 67 863 q 97 936 67 906 q 171 967 128 967 l 550 967 q 624 936 593 967 q 654 863 654 906 l 654 104 m 551 196 l 551 415 q 531 463 551 443 q 483 483 511 483 q 531 503 511 483 q 551 551 551 522 l 551 679 q 517 763 551 728 q 433 797 482 797 l 197 797 q 169 769 169 797 l 169 196 q 197 169 169 169 l 300 169 q 328 196 328 169 l 328 368 q 346 386 328 386 l 375 386 q 393 368 393 386 l 393 196 q 421 169 393 169 l 524 169 q 551 196 551 169 m 393 553 q 375 535 393 535 l 346 535 q 328 553 328 535 l 328 621 q 346 639 328 639 l 375 639 q 393 621 393 639 l 393 553 z "},"©":{"ha":654,"x_min":67,"x_max":654,"o":"m 654 104 q 624 31 654 61 q 550 0 593 0 l 171 0 q 97 31 128 0 q 67 104 67 61 l 67 863 q 97 936 67 906 q 171 967 128 967 l 550 967 q 624 936 593 967 q 654 863 654 906 l 654 104 m 507 196 l 507 300 q 479 328 507 328 l 390 328 q 372 346 372 328 l 372 621 q 390 639 372 639 l 479 639 q 507 667 507 639 l 507 769 q 479 797 507 797 l 332 797 q 249 763 283 797 q 215 679 215 728 l 215 286 q 249 203 215 238 q 332 169 283 169 l 479 169 q 507 196 507 169 z "}}}
